<?xml version="1.0" encoding="UTF-8" standalone="no"?>
<!-- Created with Inkscape (http://www.inkscape.org/) -->

<svg
   xmlns:dc="http://purl.org/dc/elements/1.1/"
   xmlns:cc="http://creativecommons.org/ns#"
   xmlns:rdf="http://www.w3.org/1999/02/22-rdf-syntax-ns#"
   xmlns:svg="http://www.w3.org/2000/svg"
   xmlns="http://www.w3.org/2000/svg"
   xmlns:xlink="http://www.w3.org/1999/xlink"
   version="1.1"
   width="57.797504"
   height="84.050003"
   id="svg2">
  <defs
     id="defs4">
    <clipPath
       id="clipPath5667">
      <path
         d="M 0,0 612,0 612,792 0,792 0,0 z"
         id="path5669" />
    </clipPath>
    <clipPath
       id="clipPath5601">
      <path
         d="m 241.607,636.619 334.393,0 0,70.382 -334.393,0 0,-70.382 z"
         id="path5603" />
    </clipPath>
    <clipPath
       id="clipPath5259">
      <path
         d="M 74.122,29 582,29 l 0,64.296 -507.878,0 0,-64.296 z"
         id="path5261" />
    </clipPath>
    <clipPath
       id="clipPath5245">
      <path
         d="m 74.122,33.846 503.034,0 0,59.45 -503.034,0 0,-59.45 z"
         id="path5247" />
    </clipPath>
    <clipPath
       id="clipPath5225">
      <path
         d="M 74.122,29 582,29 l 0,64.296 -507.878,0 0,-64.296 z"
         id="path5227" />
    </clipPath>
    <clipPath
       id="clipPath5211">
      <path
         d="m 74.122,33.846 503.034,0 0,59.45 -503.034,0 0,-59.45 z"
         id="path5213" />
    </clipPath>
    <clipPath
       id="clipPath5197">
      <path
         d="M 74.122,29 582,29 l 0,64.296 -507.878,0 0,-64.296 z"
         id="path5199" />
    </clipPath>
    <clipPath
       id="clipPath5183">
      <path
         d="m 74.122,33.846 503.034,0 0,59.45 -503.034,0 0,-59.45 z"
         id="path5185" />
    </clipPath>
    <clipPath
       id="clipPath5169">
      <path
         d="M 74.122,29 582,29 l 0,64.296 -507.878,0 0,-64.296 z"
         id="path5171" />
    </clipPath>
    <clipPath
       id="clipPath5107">
      <path
         d="M 0,0 612,0 612,792 0,792 0,0 z"
         id="path5109" />
    </clipPath>
    <clipPath
       id="clipPath5057">
      <path
         d="M 0,0 612,0 612,792 0,792 0,0 z"
         id="path5059" />
    </clipPath>
    <clipPath
       id="clipPath5003">
      <path
         d="M 0,0 612,0 612,792 0,792 0,0 z"
         id="path5005" />
    </clipPath>
    <clipPath
       id="clipPath4981">
      <path
         d="m 385.453,165.345 18.72,0 0,-19.44 -18.72,0 0,19.44 z"
         id="path4983" />
    </clipPath>
    <mask
       id="mask4965">
      <g
         id="g4967">
        <g
           clip-path="url(#clipPath4961)"
           id="g4969">
          <g
             id="g4971">
            <g
               transform="matrix(28.800003,0,0,28.800003,379.69319,141.58546)"
               id="g4973">
              <image
                 xlink:href="C:\Users\Me\Downloads\1wiki\Vital Signs\Binge Drinking-CDC Vital Signs-October 2010_img1.png"
                 width="1"
                 height="1"
                 transform="matrix(1,0,0,-1,0,1)"
                 id="image4975" />
            </g>
          </g>
        </g>
      </g>
    </mask>
    <clipPath
       id="clipPath4961">
      <path
         d="m 379.693,170.385 28.8,0 0,-28.8 -28.8,0 0,28.8 z"
         id="path4963" />
    </clipPath>
    <clipPath
       id="clipPath4945">
      <path
         d="M 0,0 612,0 612,792 0,792 0,0 z"
         id="path4947" />
    </clipPath>
    <clipPath
       id="clipPath4931">
      <path
         d="m 347.7,175.5 232.299,0 0,-26.818 -232.299,0 0,26.818 z"
         id="path4933" />
    </clipPath>
    <clipPath
       id="clipPath4879">
      <path
         d="M 0,0 612,0 612,792 0,792 0,0 z"
         id="path4881" />
    </clipPath>
    <clipPath
       id="clipPath4867">
      <path
         d="m 77.4072,343.097 37.7338,0 0,-43.025 -37.7338,0 0,43.025 z"
         id="path4869" />
    </clipPath>
    <clipPath
       id="clipPath4859">
      <path
         d="m 0,0 348.888,0 0,792 L 0,792 0,0 z"
         id="path4861" />
    </clipPath>
    <clipPath
       id="clipPath4847">
      <path
         d="m 51.4225,364.262 34.5576,0 0,-31.27 -34.5576,0 0,31.27 z"
         id="path4849" />
    </clipPath>
    <clipPath
       id="clipPath4835">
      <path
         d="m -17.7016,356.573 34.7298,0 0,-31.754 -34.7298,0 0,31.754 z"
         id="path4837" />
    </clipPath>
    <clipPath
       id="clipPath4823">
      <path
         d="m -15.7649,312.844 110.577,0 0,-43.492 -110.577,0 0,43.492 z"
         id="path4825" />
    </clipPath>
    <clipPath
       id="clipPath4815">
      <path
         d="m 0,0 348.888,0 0,792 L 0,792 0,0 z"
         id="path4817" />
    </clipPath>
    <clipPath
       id="clipPath4211">
      <path
         d="m -45.044,228.422 61.022,0 0,113.046 -61.022,0 0,-113.046 z"
         id="path4213" />
    </clipPath>
    <clipPath
       id="clipPath4207">
      <path
         d="m -45.0443,341.468 61.0224,0 0,-113.046 -61.0224,0 0,113.046 z"
         id="path4209" />
    </clipPath>
    <clipPath
       id="clipPath4187">
      <path
         d="m 52.024,234.587 62.902,0 0,115.146 -62.902,0 0,-115.146 z"
         id="path4189" />
    </clipPath>
    <clipPath
       id="clipPath4183">
      <path
         d="m 52.024,349.733 62.902,0 0,-115.146 -62.902,0 0,115.146 z"
         id="path4185" />
    </clipPath>
    <clipPath
       id="clipPath4159">
      <path
         d="m -45.067,228.408 61.043,0 0,113.06 -61.043,0 0,-113.06 z"
         id="path4161" />
    </clipPath>
    <clipPath
       id="clipPath4155">
      <path
         d="m -45.0669,341.468 61.0432,0 0,-113.06 -61.0432,0 0,113.06 z"
         id="path4157" />
    </clipPath>
    <clipPath
       id="clipPath4131">
      <path
         d="m 52.019,234.587 62.95,0 0,115.146 -62.95,0 0,-115.146 z"
         id="path4133" />
    </clipPath>
    <clipPath
       id="clipPath4127">
      <path
         d="m 52.0188,349.733 62.9502,0 0,-115.146 -62.9502,0 0,115.146 z"
         id="path4129" />
    </clipPath>
    <clipPath
       id="clipPath4107">
      <path
         d="m -43.328,230.147 57.568,0 0,109.583 -57.568,0 0,-109.583 z"
         id="path4109" />
    </clipPath>
    <clipPath
       id="clipPath4103">
      <path
         d="m -43.3283,339.729 57.5678,0 0,-109.582 -57.5678,0 0,109.582 z"
         id="path4105" />
    </clipPath>
    <clipPath
       id="clipPath4095">
      <path
         d="m 0,0 348.888,0 0,792 L 0,792 0,0 z"
         id="path4097" />
    </clipPath>
    <clipPath
       id="clipPath4075">
      <path
         d="m 39.124,345.887 16.386,0 0,27.64 -16.386,0 0,-27.64 z"
         id="path4077" />
    </clipPath>
    <clipPath
       id="clipPath4071">
      <path
         d="m 39.1238,373.527 16.386,0 0,-27.64 -16.386,0 0,27.64 z"
         id="path4073" />
    </clipPath>
    <clipPath
       id="clipPath4051">
      <path
         d="m 54.458,360.841 10.052,0 0,10.68 -10.052,0 0,-10.68 z"
         id="path4053" />
    </clipPath>
    <clipPath
       id="clipPath4047">
      <path
         d="m 54.458,371.521 10.0525,0 0,-10.68 -10.0525,0 0,10.68 z"
         id="path4049" />
    </clipPath>
    <clipPath
       id="clipPath4027">
      <path
         d="m -21.768,287.205 31.639,0 0,37.645 -31.639,0 0,-37.645 z"
         id="path4029" />
    </clipPath>
    <clipPath
       id="clipPath4023">
      <path
         d="m -21.7682,324.851 31.63862,0 0,-37.646 -31.63862,0 0,37.646 z"
         id="path4025" />
    </clipPath>
    <clipPath
       id="clipPath4003">
      <path
         d="m 8.904,320.389 88.155,0 0,47.296 -88.155,0 0,-47.296 z"
         id="path4005" />
    </clipPath>
    <clipPath
       id="clipPath3999">
      <path
         d="m 8.90378,367.686 88.15462,0 0,-47.297 -88.15462,0 0,47.297 z"
         id="path4001" />
    </clipPath>
    <clipPath
       id="clipPath3991">
      <path
         d="m 0,0 348.888,0 0,792 L 0,792 0,0 z"
         id="path3993" />
    </clipPath>
    <clipPath
       id="clipPath3975">
      <path
         d="M 19.038,379.569 C 16.74,377.634 9.156,372.573 6.216,370.985 l 0,0 C 5.036,370.349 2.757,368.966 0,367.42 l 0,0 0,-110.021 122.773,0 0,134.738 -90.803,0.256 c -1.522,-2.284 -6.739,-7.607 -12.932,-12.824"
         id="path3977" />
    </clipPath>
    <clipPath
       id="clipPath3923">
      <path
         d="m 53.738,329.893 114.69,0 0,234.176 -114.69,0 0,-234.176 z"
         id="path3925" />
    </clipPath>
    <clipPath
       id="clipPath3919">
      <path
         d="m 53.7383,564.068 114.6907,0 0,-234.175 -114.6907,0 0,234.175 z"
         id="path3921" />
    </clipPath>
    <clipPath
       id="clipPath3899">
      <path
         d="m 51.129,327.286 119.91,0 0,239.39 -119.91,0 0,-239.39 z"
         id="path3901" />
    </clipPath>
    <clipPath
       id="clipPath3895">
      <path
         d="m 51.1286,566.676 119.9094,0 0,-239.39 -119.9094,0 0,239.39 z"
         id="path3897" />
    </clipPath>
    <clipPath
       id="clipPath3875">
      <path
         d="m -94.331,337.947 131.84,0 0,229.031 -131.84,0 0,-229.031 z"
         id="path3877" />
    </clipPath>
    <clipPath
       id="clipPath3871">
      <path
         d="m -94.3312,566.979 131.8398,0 0,-229.032 -131.8398,0 0,229.032 z"
         id="path3873" />
    </clipPath>
    <clipPath
       id="clipPath3835">
      <path
         d="m -91.736,340.555 126.634,0 0,223.816 -126.634,0 0,-223.816 z"
         id="path3837" />
    </clipPath>
    <clipPath
       id="clipPath3831">
      <path
         d="m -91.7355,564.371 126.6345,0 0,-223.816 -126.6345,0 0,223.816 z"
         id="path3833" />
    </clipPath>
    <clipPath
       id="clipPath3823">
      <path
         d="m 0,0 348.888,0 0,792 L 0,792 0,0 z"
         id="path3825" />
    </clipPath>
    <clipPath
       id="clipPath3783">
      <path
         d="m 27.223,518.966 29.192,0 0,42.249 -29.192,0 0,-42.249 z"
         id="path3785" />
    </clipPath>
    <clipPath
       id="clipPath3779">
      <path
         d="m 27.2232,561.215 29.1924,0 0,-42.249 -29.1924,0 0,42.249 z"
         id="path3781" />
    </clipPath>
    <mask
       id="mask3743">
      <g
         id="g3745">
        <g
           clip-path="url(#clipPath3717)"
           id="g3747">
          <g
             id="g3749">
            <g
               clip-path="url(#clipPath3721)"
               id="g3751">
              <path
                 d="m 27.223,561.215 29.205,0 0,-42.522 -29.205,0 0,42.522 z"
                 id="path3753"
                 style="fill:#000000;fill-opacity:1;fill-rule:nonzero;stroke:none" />
              <g
                 id="g3755">
                <g
                   id="g3757" />
                <g
                   id="g3759">
                  <g
                     clip-path="url(#clipPath3725)"
                     id="g3761">
                    <g
                       id="g3763">
                      <g
                         clip-path="url(#clipPath3729)"
                         id="g3765">
                        <g
                           id="g3767">
                          <g
                             id="g3769">
                            <g
                               clip-path="url(#clipPath3733)"
                               id="g3771">
                              <path
                                 d="m 27.223,561.216 0,-30.375 c 5.43,-4.429 7.633,-8.79 9.819,-12.149 l 0,0 19.386,0 0,39.277 c -0.965,1.168 -2.016,2.247 -3.134,3.247 l 0,0 -26.071,0 z"
                                 id="path3773"
                                 style="fill:url(#linearGradient3737);stroke:none" />
                            </g>
                          </g>
                        </g>
                      </g>
                    </g>
                  </g>
                </g>
              </g>
            </g>
          </g>
        </g>
      </g>
    </mask>
    <linearGradient
       x1="0"
       y1="0"
       x2="1"
       y2="0"
       id="linearGradient3737"
       gradientUnits="userSpaceOnUse"
       gradientTransform="matrix(-10.431442,6.9543152,6.9543152,10.431458,44.176025,539.95355)"
       spreadMethod="pad">
      <stop
         id="stop3739"
         style="stop-color:#ffffff;stop-opacity:1"
         offset="0" />
      <stop
         id="stop3741"
         style="stop-color:#231f20;stop-opacity:1"
         offset="1" />
    </linearGradient>
    <clipPath
       id="clipPath3733">
      <path
         d="m -2.96147,-3.65309 7.03848,0 0,7 -7.03848,0 0,-7 z"
         id="path3735" />
    </clipPath>
    <clipPath
       id="clipPath3729">
      <path
         d="m 27.223,561.216 0,-30.375 c 5.43,-4.429 7.633,-8.79 9.819,-12.149 l 0,0 19.386,0 0,39.277 c -0.965,1.168 -2.016,2.247 -3.134,3.247 l 0,0 -26.071,0 z"
         id="path3731" />
    </clipPath>
    <clipPath
       id="clipPath3725">
      <path
         d="m 27.2232,561.215 29.2046,0 0,-42.523 -29.2046,0 0,42.523 z"
         id="path3727" />
    </clipPath>
    <clipPath
       id="clipPath3721">
      <path
         d="m 27.223,518.966 29.192,0 0,42.249 -29.192,0 0,-42.249 z"
         id="path3723" />
    </clipPath>
    <clipPath
       id="clipPath3717">
      <path
         d="m 27.2232,561.215 29.1924,0 0,-42.249 -29.1924,0 0,42.249 z"
         id="path3719" />
    </clipPath>
    <clipPath
       id="clipPath3709">
      <path
         d="m 0,0 348.888,0 0,792 L 0,792 0,0 z"
         id="path3711" />
    </clipPath>
    <clipPath
       id="clipPath3633">
      <path
         d="m 29.148,345.58 36.56,0 0,285.605 -36.56,0 0,-285.605 z"
         id="path3635" />
    </clipPath>
    <clipPath
       id="clipPath3629">
      <path
         d="m 29.1478,631.185 36.5605,0 0,-285.605 -36.5605,0 0,285.605 z"
         id="path3631" />
    </clipPath>
    <mask
       id="mask3589">
      <g
         id="g3591">
        <g
           clip-path="url(#clipPath3563)"
           id="g3593">
          <path
             d="m 29.148,631.185 36.559,0 0,-285.603 -36.559,0 0,285.603 z"
             id="path3595"
             style="fill:#000000;fill-opacity:1;fill-rule:nonzero;stroke:none" />
          <g
             id="g3597">
            <g
               id="g3599" />
            <g
               id="g3601">
              <g
                 clip-path="url(#clipPath3567)"
                 id="g3603">
                <g
                   id="g3605">
                  <g
                     clip-path="url(#clipPath3571)"
                     id="g3607">
                    <g
                       id="g3609">
                      <g
                         id="g3611">
                        <g
                           clip-path="url(#clipPath3575)"
                           id="g3613">
                          <path
                             d="m 29.147,345.579 36.561,0 0,285.605 -36.561,0 0,-285.605 z"
                             id="path3615"
                             style="fill:url(#linearGradient3579);stroke:none" />
                        </g>
                      </g>
                    </g>
                  </g>
                </g>
                <g
                   id="g3617">
                  <g
                     clip-path="url(#clipPath3585)"
                     id="g3619">
                    <g
                       transform="translate(125.4041,295.2218)"
                       id="g3621">
                      <path
                         d="m 0,0 -156.759,0 0,380.961 L 0,380.961 0,0 z"
                         id="path3623"
                         style="fill:none;stroke:#f48e84;stroke-width:2.7349999;stroke-linecap:butt;stroke-linejoin:miter;stroke-miterlimit:4;stroke-opacity:1;stroke-dasharray:none" />
                    </g>
                  </g>
                </g>
              </g>
            </g>
          </g>
        </g>
      </g>
    </mask>
    <clipPath
       id="clipPath3585">
      <path
         d="m 29.148,345.58 36.56,0 0,285.605 -36.56,0 0,-285.605 z"
         id="path3587" />
    </clipPath>
    <linearGradient
       x1="0"
       y1="0"
       x2="1"
       y2="0"
       id="linearGradient3579"
       gradientUnits="userSpaceOnUse"
       gradientTransform="matrix(9.1129913,153.11377,153.11377,-9.1129913,44.870438,449.52631)"
       spreadMethod="pad">
      <stop
         id="stop3581"
         style="stop-color:#ffffff;stop-opacity:1"
         offset="0" />
      <stop
         id="stop3583"
         style="stop-color:#231f20;stop-opacity:1"
         offset="1" />
    </linearGradient>
    <clipPath
       id="clipPath3575">
      <path
         d="m -1.03374,-0.583878 2.54003,0 0,1.167756 -2.54003,0 0,-1.167756 z"
         id="path3577" />
    </clipPath>
    <clipPath
       id="clipPath3571">
      <path
         d="m 29.147,345.579 36.561,0 0,285.605 -36.561,0 0,-285.605 z"
         id="path3573" />
    </clipPath>
    <clipPath
       id="clipPath3567">
      <path
         d="m 29.1478,631.185 36.5605,0 0,-285.605 -36.5605,0 0,285.605 z"
         id="path3569" />
    </clipPath>
    <clipPath
       id="clipPath3563">
      <path
         d="m 29.1478,631.185 36.5605,0 0,-285.605 -36.5605,0 0,285.605 z"
         id="path3565" />
    </clipPath>
    <clipPath
       id="clipPath3555">
      <path
         d="m 0,0 348.888,0 0,792 L 0,792 0,0 z"
         id="path3557" />
    </clipPath>
    <clipPath
       id="clipPath3495">
      <path
         d="m 41.6621,602.098 18.0847,0 0,-7.039 -18.0847,0 0,7.039 z"
         id="path3497" />
    </clipPath>
    <clipPath
       id="clipPath3483">
      <path
         d="m 66.0178,532.12 0.1739,0 0,-0.173 -0.1739,0 0,0.173 z"
         id="path3485" />
    </clipPath>
    <clipPath
       id="clipPath3471">
      <path
         d="m 173.288,39.5779 0.174,0 0,-0.1738 -0.174,0 0,0.1738 z"
         id="path3473" />
    </clipPath>
    <clipPath
       id="clipPath3459">
      <path
         d="m 35.2276,31.158 0.1739,0 0,-0.1739 -0.1739,0 0,0.1739 z"
         id="path3461" />
    </clipPath>
    <clipPath
       id="clipPath3447">
      <path
         d="m 93.3048,712.903 1.9593,0 0,-2.384 -1.9593,0 0,2.384 z"
         id="path3449" />
    </clipPath>
    <clipPath
       id="clipPath3439">
      <path
         d="m 0,0 348.888,0 0,792 L 0,792 0,0 z"
         id="path3441" />
    </clipPath>
    <clipPath
       id="clipPath3419">
      <path
         d="m 89.45,464.481 0.981,0 0,1.982 -0.981,0 0,-1.982 z"
         id="path3421" />
    </clipPath>
    <clipPath
       id="clipPath3415">
      <path
         d="m 89.4503,466.463 0.9806,0 0,-1.982 -0.9806,0 0,1.982 z"
         id="path3417" />
    </clipPath>
    <clipPath
       id="clipPath3395">
      <path
         d="m 77.823,447.568 27.968,0 0,72.247 -27.968,0 0,-72.247 z"
         id="path3397" />
    </clipPath>
    <clipPath
       id="clipPath3391">
      <path
         d="m 77.8228,519.815 27.9682,0 0,-72.247 -27.9682,0 0,72.247 z"
         id="path3393" />
    </clipPath>
    <clipPath
       id="clipPath3371">
      <path
         d="m 80.272,445.527 13.206,0 0,14.26 -13.206,0 0,-14.26 z"
         id="path3373" />
    </clipPath>
    <clipPath
       id="clipPath3367">
      <path
         d="m 80.2724,459.787 13.2062,0 0,-14.26 -13.2062,0 0,14.26 z"
         id="path3369" />
    </clipPath>
    <clipPath
       id="clipPath3347">
      <path
         d="m 88.899,411.202 24.338,0 0,24.759 -24.338,0 0,-24.759 z"
         id="path3349" />
    </clipPath>
    <clipPath
       id="clipPath3343">
      <path
         d="m 88.8992,435.961 24.3388,0 0,-24.759 -24.3388,0 0,24.759 z"
         id="path3345" />
    </clipPath>
    <clipPath
       id="clipPath3323">
      <path
         d="m 93.793,458.843 12.269,0 0,5.532 -12.269,0 0,-5.532 z"
         id="path3325" />
    </clipPath>
    <clipPath
       id="clipPath3319">
      <path
         d="m 93.7933,464.375 12.2687,0 0,-5.532 -12.2687,0 0,5.532 z"
         id="path3321" />
    </clipPath>
    <clipPath
       id="clipPath3299">
      <path
         d="m 89.433,464.053 12.188,0 0,4.36 -12.188,0 0,-4.36 z"
         id="path3301" />
    </clipPath>
    <clipPath
       id="clipPath3295">
      <path
         d="m 89.433,468.414 12.187,0 0,-4.361 -12.187,0 0,4.361 z"
         id="path3297" />
    </clipPath>
    <clipPath
       id="clipPath3275">
      <path
         d="m -8.944,445.032 27.944,0 0,75.614 -27.944,0 0,-75.614 z"
         id="path3277" />
    </clipPath>
    <clipPath
       id="clipPath3271">
      <path
         d="m -8.94444,520.646 27.94414,0 0,-75.614 -27.94414,0 0,75.614 z"
         id="path3273" />
    </clipPath>
    <clipPath
       id="clipPath3251">
      <path
         d="m -0.848,464.135 9.599,0 0,11.6 -9.599,0 0,-11.6 z"
         id="path3253" />
    </clipPath>
    <clipPath
       id="clipPath3247">
      <path
         d="m -0.84787,475.735 9.59868,0 0,-11.6 -9.59868,0 0,11.6 z"
         id="path3249" />
    </clipPath>
    <clipPath
       id="clipPath3227">
      <path
         d="m -10.488,455.028 13.632,0 0,5.014 -13.632,0 0,-5.014 z"
         id="path3229" />
    </clipPath>
    <clipPath
       id="clipPath3223">
      <path
         d="m -10.4883,460.042 13.63219,0 0,-5.014 -13.63219,0 0,5.014 z"
         id="path3225" />
    </clipPath>
    <clipPath
       id="clipPath3203">
      <path
         d="m -6.23,402.791 19.22,0 0,30.197 -19.22,0 0,-30.197 z"
         id="path3205" />
    </clipPath>
    <clipPath
       id="clipPath3199">
      <path
         d="m -6.23051,432.988 19.21991,0 0,-30.197 -19.21991,0 0,30.197 z"
         id="path3201" />
    </clipPath>
    <clipPath
       id="clipPath3179">
      <path
         d="m -8.915,436.469 23.606,0 0,13.677 -23.606,0 0,-13.677 z"
         id="path3181" />
    </clipPath>
    <clipPath
       id="clipPath3175">
      <path
         d="m -8.91489,450.146 23.60639,0 0,-13.677 -23.60639,0 0,13.677 z"
         id="path3177" />
    </clipPath>
    <clipPath
       id="clipPath3155">
      <path
         d="m 14.179,452.266 0.746,0 0,1.864 -0.746,0 0,-1.864 z"
         id="path3157" />
    </clipPath>
    <clipPath
       id="clipPath3151">
      <path
         d="m 14.1786,454.13 0.7459,0 0,-1.864 -0.7459,0 0,1.864 z"
         id="path3153" />
    </clipPath>
    <clipPath
       id="clipPath3131">
      <path
         d="m -10.222,449.048 9.251,0 0,5.064 -9.251,0 0,-5.064 z"
         id="path3133" />
    </clipPath>
    <clipPath
       id="clipPath3127">
      <path
         d="m -10.2223,454.112 9.250971,0 0,-5.064 -9.250971,0 0,5.064 z"
         id="path3129" />
    </clipPath>
    <clipPath
       id="clipPath3107">
      <path
         d="m 79.236,473.103 0.024,0 0,0.024 -0.024,0 0,-0.024 z"
         id="path3109" />
    </clipPath>
    <clipPath
       id="clipPath3103">
      <path
         d="m 79.2362,473.127 0.0244,0 0,-0.024 -0.0244,0 0,0.024 z"
         id="path3105" />
    </clipPath>
    <clipPath
       id="clipPath3091">
      <path
         d="m 8.75081,452.728 0.17387,0 0,-0.174 -0.17387,0 0,0.174 z"
         id="path3093" />
    </clipPath>
    <clipPath
       id="clipPath3083">
      <path
         d="m 0,0 348.888,0 0,792 L 0,792 0,0 z"
         id="path3085" />
    </clipPath>
    <clipPath
       id="clipPath3067">
      <path
         d="m 0,0 348.888,0 0,792 L 0,792 0,0 z"
         id="path3069" />
    </clipPath>
    <clipPath
       id="clipPath3055">
      <path
         d="m -67.8614,660.481 219.9004,0 0,-292.755 -219.9004,0 0,292.755 z"
         id="path3057" />
    </clipPath>
    <clipPath
       id="clipPath3043">
      <path
         d="m -67.8614,660.481 219.9004,0 0,-292.755 -219.9004,0 0,292.755 z"
         id="path3045" />
    </clipPath>
    <clipPath
       id="clipPath3035">
      <path
         d="m 135.915,527.073 c -10.173,-3.854 -17.5,-7.71 -18.932,-5.702 l 0,0 c -0.725,1.015 -6.053,-1.676 -12.617,-4.366 l 0,0 c -10.03,-4.109 -22.955,-8.221 -26.79,0.886 l 0,0 c -8.681,20.613 -25.5,-8.111 -25.5,-8.111 l 0,0 c 0,0 -26.899,18.153 -52.076,18.269 l 0,0 0,-254.29 c 30.526,-8.373 70.43,-16.062 129.438,-21.866 l 0,0 c 106.052,-10.431 63.458,30.425 94.752,74.758 l 0,0 c 31.295,44.334 11.3,113.008 -16.517,174.728 l 0,0 c -11.202,24.855 -27.39,31.947 -43.009,31.948 l 0,0 c -10.375,10e-4 -20.497,-3.127 -28.749,-6.254"
         id="path3037" />
    </clipPath>
    <clipPath
       id="clipPath3023">
      <path
         d="m -262.664,766.077 601.877,0 0,-1614.695 -601.877,0 0,1614.695 z"
         id="path3025" />
    </clipPath>
    <clipPath
       id="clipPath3015">
      <path
         d="m 0,0 348.888,0 0,792 L 0,792 0,0 z"
         id="path3017" />
    </clipPath>
    <clipPath
       id="clipPath2999">
      <path
         d="m 0,0 348.888,0 0,792 L 0,792 0,0 z"
         id="path3001" />
    </clipPath>
  </defs>
  <metadata
     id="metadata7">
    <rdf:RDF>
      <cc:Work
         rdf:about="">
        <dc:format>image/svg+xml</dc:format>
        <dc:type
           rdf:resource="http://purl.org/dc/dcmitype/StillImage" />
        <dc:title></dc:title>
      </cc:Work>
    </rdf:RDF>
  </metadata>
  <g
     transform="translate(-91.767917,-577.67052)"
     id="layer1">
    <path
       d="m 91.767917,593.4754 26.512503,31.115 0,31.85875 c 0,0 -2.8475,2.92375 -10.91875,4.51375 l 26.9775,0 c 0,0 -11.105,-2.53 -11.415,-4.43875 l 0,-32.005 26.64125,-30.88125 -57.797503,-0.1625 z"
       id="path5045"
       style="fill:#ca8d97;fill-opacity:1;fill-rule:nonzero;stroke:none" />
    <path
       d="m 134.35654,661.72052 -26.9875,0 0,-0.7725 26.9875,0 0,0.7725 z"
       id="path5047"
       style="fill:#ca8d97;fill-opacity:1;fill-rule:nonzero;stroke:none" />
    <path
       d="m 129.27492,595.86302 9.09625,-15.4875 11.0625,-2.705 0,2.45875 -9.5875,2.45875 -8.1125,13.52125 -2.45875,-0.24625 z"
       id="path5051"
       style="fill:#ca8d97;fill-opacity:1;fill-rule:nonzero;stroke:none" />
  </g>
</svg>
